<svg width="1440" height="1056" viewBox="0 0 1440 1056" fill="none" xmlns="http://www.w3.org/2000/svg">
<g clip-path="url(#clip0_831_11)">
<g opacity="0.4">
<g style="mix-blend-mode:overlay">
<path d="M212.051 436.69L6.26348 482.343L-219.866 542.209L-232 532.475" stroke="#fff" stroke-linecap="round" stroke-linejoin="round"/>
</g>
<g style="mix-blend-mode:overlay">
<path d="M1731.86 76.3762L1557.51 239.902L1372.71 400.63L1214.93 526.058L1078.06 624.202L958.216 700.558L941.22 688.765L915.893 678.091L881.173 669.676L836.453 664.239L756.807 745.453L753.791 748.531L709.43 752.169L656.489 759.804L599.581 830.704L588.108 841.877L545.648 883.194L544.436 884.353L517.346 904.881L492.211 923.93L491.564 924.41L470.781 935.783L451.017 948.136L441.363 953.773L419.768 967.665L416.972 969.424L416.27 969.884L413.997 971.383" stroke="#6B5069" stroke-linecap="round" stroke-linejoin="round"/>
</g>
<g style="mix-blend-mode:overlay">
<path d="M1677.43 0L1523.16 169.603L1342.85 352.578L1189.7 494.017L1057.35 603.634L941.22 688.765L838.533 754.407L817.874 750.37L789.847 748.111L753.791 748.531L688.331 804.039L683.758 807.937L679.943 811.155L678.043 812.774L652.398 830.684L608.96 861.046L608.381 861.446L597.735 867.463L572.849 882.494L561.707 888.451L553.181 892.728L544.45 897.665" stroke="#6B5069" stroke-linecap="round" stroke-linejoin="round"/>
</g>
<g style="mix-blend-mode:overlay">
<path d="M1731.86 179.317L1574.48 307.124L1388.7 447.284L1228.75 557.96L1089.73 644.87L967.705 712.931L860.266 765.501L852.333 759.724L838.533 754.407L779.656 786.789L747.056 804.719L741.134 807.457L724.525 815.173L723.368 815.712L706.551 824.807L703.577 827.805L685.383 834.881L681.224 836.38" stroke="#6B5069" stroke-linecap="round" stroke-linejoin="round"/>
</g>
<g style="mix-blend-mode:overlay">
<path d="M1731.86 326.593L1569.8 427.615L1388.3 532.815L1229.82 617.166L1096.57 681.309L1091.08 683.948L973.572 734.379L968.889 736.398L895.386 764.002L864.797 775.475L861.492 776.715" stroke="#6B5069" stroke-linecap="round" stroke-linejoin="round"/>
</g>
<g style="mix-blend-mode:overlay">
<path d="M-46.3887 0L73.2251 188.152L212.051 436.69L397.635 404.468L563.153 384.799L708.7 376.764L834.47 379.143L940.793 390.596L1028.37 409.445L1143.4 217.735L1257.02 0" stroke="#6B5069" stroke-linecap="round" stroke-linejoin="round"/>
</g>
<g style="mix-blend-mode:overlay">
<path d="M1731.86 260.471L1577.66 369.848L1393.04 491.698L1233.22 588.483L1093.53 665.079L970.996 724.964L894.064 758.005L862.938 771.378L832.611 782.571L818.756 787.688L806.264 792.306L796.761 795.804" stroke="#6B5069" stroke-linecap="round" stroke-linejoin="round"/>
</g>
<g style="mix-blend-mode:overlay">
<path d="M212.052 436.69L293.832 613.288L338.799 742.634L358.88 839.139L361.744 911.737L352.558 966.366L335.053 1007.08L322.217 1023.67L317.108 1030.29L311.984 1036.91L289.425 1054.96L287.538 1056.51L287.414 1056.69L285.5 1058.09L267.183 1071.95L260.613 1075.78L253.507 1081.82L252.942 1082.42L251.854 1083.54" stroke="#6B5069" stroke-linecap="round" stroke-linejoin="round"/>
</g>
<g style="mix-blend-mode:overlay">
<path d="M1099.33 0L1032.37 182.815L940.793 390.596L857.801 545.587L781.088 662.9L711.964 749.011L709.43 752.169L644.176 818.151L642.179 820.17L580.933 870.101L579.969 870.881L579.101 871.58L560.123 883.953L524.81 906.96L519.99 910.078L518.406 910.978L495.778 923.55L484.305 929.907L471.084 937.043L462.173 942.22L419.919 967.805L419.823 967.845L417.165 969.404L416.27 969.884L413.997 971.383" stroke="#6B5069" stroke-linecap="round" stroke-linejoin="round"/>
</g>
<g style="mix-blend-mode:overlay">
<path d="M217.023 779.593L83.9952 824.407L-60.588 877.477L-216.878 939.301L-232 932.206" stroke="#6B5069" stroke-linecap="round" stroke-linejoin="round"/>
</g>
<g style="mix-blend-mode:overlay">
<path d="M262.032 0L321.46 156.27L397.635 404.468L435.923 582.286L449.42 713.231L446.101 811.255L431.213 885.153L361.744 911.737L285.569 942.879L202.645 978.739L112.752 1019.56L45.2395 958.69L-60.588 877.477L-194.525 786.509L-221.781 768L-232 761.703" stroke="#6B5069" stroke-linecap="round" stroke-linejoin="round"/>
</g>
<g style="mix-blend-mode:overlay">
<path d="M1731.86 646.749L1611.17 669.596L1460.25 696.541L1451.77 698.06L1313.04 720.787L1305.38 722.026L1179.64 740.635L1171.41 741.855L1072.72 754.507L1050.93 758.345L1037.64 760.724L1027.08 761.763L1003.82 764.542L981.133 766.68L972.553 766.501L971.726 766.481L971.547 766.501L968.958 766.72" stroke="#6B5069" stroke-linecap="round" stroke-linejoin="round"/>
</g>
<g style="mix-blend-mode:overlay">
<path d="M1731.86 538.831L1615.89 579.208L1450.2 633.057L1442.15 635.675L1408.4 662.92L1374.41 685.987L1339.59 705.715L1305.38 722.026L1270.77 735.678L1237.16 746.572L1203.32 755.367L1170.66 761.923L1137.82 766.78L1106.19 769.859L1004.06 765.841L982.455 764.402L962.788 765.881L959.744 766.66L956.287 767.62L955.048 767.9" stroke="#6B5069" stroke-linecap="round" stroke-linejoin="round"/>
</g>
<g style="mix-blend-mode:overlay">
<path d="M158.601 912.597L45.2395 958.69L-77.2665 1011.5L-208.972 1071.47L-232 1082.5" stroke="#6B5069" stroke-linecap="round" stroke-linejoin="round"/>
</g>
<g style="mix-blend-mode:overlay">
<path d="M1731.86 715.99L1615.73 725.364L1469.38 736.898L1331.79 746.912L1203.32 755.367L1096.12 761.164L1086.35 761.683L1010.45 764.862L984.81 765.941" stroke="#6B5069" stroke-linecap="round" stroke-linejoin="round"/>
</g>
<g style="mix-blend-mode:overlay">
<path d="M958.216 700.558L852.333 759.724L823.907 773.416L785.936 791.686L779.077 794.984L758.598 804.838L755.182 807.797L746.078 812.694L740.487 814.613L728.463 818.73L727.761 818.99L723.684 820.429L723.423 820.789L712.322 824.427L706.551 824.807L703.852 826.126L697.062 829.924" stroke="#6B5069" stroke-linecap="round" stroke-linejoin="round"/>
</g>
<g style="mix-blend-mode:overlay">
<path d="M927.751 0L895.771 156.97L834.47 379.143L774.174 543.209" stroke="#6B5069" stroke-linecap="round" stroke-linejoin="round"/>
</g>
<g style="mix-blend-mode:overlay">
<path d="M518.048 0L541.048 141.599L563.153 384.799L563.332 560.698L548.967 691.004L524.796 788.928L494.056 862.925L459.06 918.753L422.233 959.81L421.668 960.449L418.032 962.388L402.098 970.863L396.74 973.702L380.42 982.377L367.694 994.85L360.849 1001.53L359.94 1002.41L349.266 1012.86L325.674 1029.05L325.192 1029.93L325.096 1030.01L308.886 1040.92L289.618 1054.98L289.508 1055.06L287.648 1056.51L287.414 1056.69L285.5 1058.09" stroke="#6B5069" stroke-linecap="round" stroke-linejoin="round"/>
</g>
<g style="mix-blend-mode:overlay">
<path d="M1542 0L1467.87 97.704L1296.33 304.885L1286.18 315.939L1151.4 462.815L1026.04 584.385L915.893 678.091L817.874 750.37L770.896 779.933L731.81 804.539L730.171 805.558L720.682 810.595L702.971 819.99L682.684 830.724L681.307 831.463L659.271 843.956L651.338 847.334L646.724 849.953L641.628 852.171L631.078 855.39L598.149 871.141L588.343 875.818L564.53 887.211L561.61 888.73L544.45 897.665" stroke="#6B5069" stroke-linecap="round" stroke-linejoin="round"/>
</g>
<g style="mix-blend-mode:overlay">
<path d="M736.507 0L732.292 142.458L708.7 376.764L676.073 547.906L637.441 675.573L594.953 771.877L550.179 844.876L505.474 898.725L504.427 899.984L468.412 932.445L459.226 940.721L458.716 941.18L421.668 960.449L418.28 963.148L409.507 970.144L407.731 971.563L383.284 991.052L370.104 999.647L369.966 999.727L367.281 1001.39L366.62 1001.73L349.266 1012.86L342.848 1017.42L325.963 1029.39L325.674 1029.05L323.595 1029.89L323.113 1029.97L322.548 1030.09L321.873 1030.53L311.984 1036.91" stroke="#6B5069" stroke-linecap="round" stroke-linejoin="round"/>
</g>
<g style="mix-blend-mode:overlay">
<path d="M774.174 543.208L676.073 547.906L563.332 560.698L435.923 582.286L293.832 613.288L136.992 654.245L-34.8198 705.615L-221.781 768L-232 771.738" stroke="#6B5069" stroke-linecap="round" stroke-linejoin="round"/>
</g>
<g style="mix-blend-mode:overlay">
<path d="M1731.86 761.483L1648.15 761.903L1511.68 763.182L1379.5 764.742L1254.7 765.981L1137.82 766.78L1031.42 766.62L986.973 766.94L976.616 766.54" stroke="#6B5069" stroke-linecap="round" stroke-linejoin="round"/>
</g>
<g style="mix-blend-mode:overlay">
<path d="M1731.86 861.526L1650.28 847.134L1540.07 830.284L1428.21 815.372L1317.65 802.18L1210.1 790.567L1108.39 780.173L1024.5 771.857L1013.42 770.758L983.158 768.08L968.958 766.78L968.393 766.76" stroke="#6B5069" stroke-linecap="round" stroke-linejoin="round"/>
</g>
<g style="mix-blend-mode:overlay">
<path d="M1731.86 506.13L1655.57 536.512L1482.96 600.976L1474.15 604.274L1319.78 657.443L1312.46 659.962L1186.25 699.579L1168.14 705.256L1056.87 736.378L1046.74 739.216L1040.49 740.955L946.013 764.122" stroke="#6B5069" stroke-linecap="round" stroke-linejoin="round"/>
</g>
<g style="mix-blend-mode:overlay">
<path d="M217.023 779.593L263.092 872.84L285.569 942.879L291.436 995.489" stroke="#6B5069" stroke-linecap="round" stroke-linejoin="round"/>
</g>
<g style="mix-blend-mode:overlay">
<path d="M1731.86 622.163L1659.72 638.794L1501.18 673.114L1493.1 674.873L1347.76 704.076L1339.59 705.715L1208.2 729.582L1200.67 730.941L1095.17 747.971L1083.59 749.83L1075.07 751.209L987.331 763.242L975.858 765.581L975.128 766.421L974.453 766.481L972.732 766.58" stroke="#6B5069" stroke-linecap="round" stroke-linejoin="round"/>
</g>
<g style="mix-blend-mode:overlay">
<path d="M1731.86 809.116L1659.66 803.319L1535.19 795.044L1412.42 788.028L1293.09 782.012L1180.19 776.575L1074.47 771.518L1008.98 768.02L995.635 767.3L983.929 765.601L972.635 765.741" stroke="#6B5069" stroke-linecap="round" stroke-linejoin="round"/>
</g>
<g style="mix-blend-mode:overlay">
<path d="M291.436 995.489L224.984 1028.37L153.105 1065.17L112.752 1019.56L15.7802 1065.61L-77.2665 1011.5L-216.878 939.301L-232 945.698" stroke="#6B5069" stroke-linecap="round" stroke-linejoin="round"/>
</g>
<g style="mix-blend-mode:overlay">
<path d="M158.601 912.597L202.645 978.739L224.984 1028.37L231.829 1065.25" stroke="#6B5069" stroke-linecap="round" stroke-linejoin="round"/>
</g>
<g style="mix-blend-mode:overlay">
<path d="M1731.86 693.322L1669.47 700.738L1515.96 718.188L1370.99 733.699L1245.1 745.812L1237.16 746.572L1114.12 757.006L1028.32 762.283L972.814 766.001L972.084 766.061" stroke="#6B5069" stroke-linecap="round" stroke-linejoin="round"/>
</g>
<g style="mix-blend-mode:overlay">
<path d="M1344.59 0L1387.56 26.6247L1467.87 97.704L1523.16 169.603L1557.51 239.902L1574.48 307.124L1577.66 369.848L1569.8 427.615L1553.72 479.805L1384.45 566.215L1376.13 570.473L1227.11 640.173L1220.48 643.271L1099.08 694.622L1083.32 701.278L986.628 737.597L962.761 746.572L916.637 761.703L901.583 766.64L874.204 775.635L861.037 778.414L846.108 781.692" stroke="#6B5069" stroke-linecap="round" stroke-linejoin="round"/>
</g>
<g style="mix-blend-mode:overlay">
<path d="M665.565 842.537L662.824 843.616L659.326 844.076L651.338 847.334L647.357 848.913L642.578 851.352" stroke="#6B5069" stroke-linecap="round" stroke-linejoin="round"/>
</g>
<g style="mix-blend-mode:overlay">
<path d="M1731.86 890.909L1688.31 880.115L1622.64 890.629L1526.99 866.623L1468.64 871.76L1374.16 847.954L1322.46 848.833L1238.37 827.645L1231.46 825.906L1161.36 809.876L1141.86 805.418L1076.55 791.666L1063.59 788.928L1055.37 787.189L1019.56 782.991L968.793 771.697L954.056 768.1L953.134 767.86L951.784 768.1L948.396 768.479" stroke="#6B5069" stroke-linecap="round" stroke-linejoin="round"/>
</g>
<g style="mix-blend-mode:overlay">
<path d="M1731.86 871.061L1688.31 880.115L1587.6 858.508L1526.99 866.623L1427.75 844.736L1326.96 825.047L1227.34 807.477L1138.76 793.185L1130.69 791.886L1062.34 781.452L1039.58 777.974L984.604 769.859L968.311 767.18L965.653 767.06" stroke="#6B5069" stroke-linecap="round" stroke-linejoin="round"/>
</g>
<g style="mix-blend-mode:overlay">
<path d="M1731.86 469.991L1692.85 487.68L1513.15 564.197L1504.43 567.914L1358.32 625.541L1336.86 634.017L1195.1 685.007L1188.59 687.346L1072.82 724.784L1057.06 729.882L965.281 755.967L941.303 762.783L927.42 768.679" stroke="#6B5069" stroke-linecap="round" stroke-linejoin="round"/>
</g>
<g style="mix-blend-mode:overlay">
<path d="M863.516 782.531L897.741 809.456L899.903 811.395L934.444 842.777L967.732 878.776L995.897 916.814L1018 956.332L1033.11 996.489L1041 1036.61L1041.62 1075.76L1035.47 1113.34L1023.15 1148.7L1005.63 1181.4L983.915 1211.07L959.07 1237.57L932.144 1260.82L904.104 1280.97L865.128 1262.58L828.851 1242.93L795.301 1222.1L764.423 1200.23L728.147 1218.66L697.999 1196.13L670.523 1172.75L629.564 1188.14L602.611 1164.11L578.33 1139.47L532.716 1151.24L487.721 1159.64L444.338 1165.11L403.31 1168.17L365.16 1169.31L330.137 1168.97L291.877 1139.81L256.137 1109.78L238.646 1093.53" stroke="#6B5069" stroke-linecap="round" stroke-linejoin="round"/>
</g>
<g style="mix-blend-mode:overlay">
<path d="M837.899 788.128L867.675 819.43L894.89 853.97L917.325 890.609L933.921 928.827L943.713 967.805L946.302 1006.8L941.523 1044.98L929.748 1081.56L911.582 1115.86L887.935 1147.36L859.908 1175.69L828.631 1200.61L795.301 1222.1L761.008 1240.25L726.728 1255.26L693.275 1267.43L655.786 1246.01L621.341 1255.54L583.949 1232.87L549.16 1209.27L511.41 1215.78L476.538 1190.84L444.338 1165.11L414.892 1138.77L388.298 1111.92L364.623 1084.74L343.936 1057.37L290.899 1056.73L287.717 1056.51" stroke="#6B5069" stroke-linecap="round" stroke-linejoin="round"/>
</g>
<g style="mix-blend-mode:overlay">
<path d="M916.416 772.977L949.511 782.711L984.273 791.826L990.581 794.285L1050.75 817.691L1056.23 820.05L1117.88 846.535L1161.84 855.03L1166.85 857.328L1230.73 886.732L1279.84 893.668L1347.84 927.528L1402.09 932.105L1406.59 934.544L1466.89 967.145L1526.43 968.545L1586.34 1003.72L1651.56 1001.11L1705.48 1035.47L1731.86 1032.73" stroke="#6B5069" stroke-linecap="round" stroke-linejoin="round"/>
</g>
<g style="mix-blend-mode:overlay">
<path d="M838.216 788.048L868.46 805.998L899.958 839.419L927.462 875.238L949.828 913.016L965.818 951.994L974.853 991.511L1007.2 1014.48L1041 1036.61L1076.34 1057.65L1113.47 1077.56L1152.52 1096.15L1193.7 1113.36L1237.12 1128.95L1283.01 1142.88L1331.46 1154.98L1382.71 1165.11L1436.85 1173.09L1494.06 1178.8L1554.49 1182.02L1618.34 1182.56L1685.77 1180.22L1731.86 1176.71" stroke="#6B5069" stroke-linecap="round" stroke-linejoin="round"/>
</g>
<g style="mix-blend-mode:overlay">
<path d="M897.851 775.775L928.247 791.526L962.278 803.679L966.617 806.098L1017.11 834.082L1055.77 846.375L1096.53 858.008L1100.5 860.367L1154.32 892.308L1199.44 903.222L1203.08 905.641L1254.96 940.101L1304.28 949.616L1355.37 987.974L1408.96 995.309L1454.19 1033.97L1512.27 1038.38L1550.91 1076.14L1613.87 1077L1645.78 1112.92L1713.95 1109.66L1731.86 1133.27" stroke="#6B5069" stroke-linecap="round" stroke-linejoin="round"/>
</g>
<g style="mix-blend-mode:overlay">
<path d="M-232 245.199L-203.863 238.723L6.26348 482.343L136.992 654.245L217.023 779.593L338.799 742.634L449.42 713.231L548.967 691.004L637.441 675.573L714.815 666.378L774.174 543.209L857.801 545.587L927.228 554.102L1028.37 409.445L1098.12 434.151L1151.4 462.815L1189.7 494.017L1214.93 526.058L1228.75 557.96L1233.22 588.483L1229.82 617.166L1220.48 643.271L1206.17 666.798L1188.59 687.346L1168.14 705.256L1146.32 720.247L1122.95 732.92L1021.89 751.849L1003.53 758.285L983.764 764.382L981.505 766.041L980.086 765.941L975.514 765.501L968.187 766.121L965.405 766.58H963.849L959.827 767.02L956.494 766.421L950.93 766.88H946.702L937.13 768.899L932.489 770.498L928.839 771.378L927.599 770.498L925.534 770.618L922.214 770.578L914.378 772.117L911.968 773.117L909.447 773.557L907.574 773.397L902.341 773.996L897.383 775.535L892.163 776.875L891.929 776.935L891.13 776.655L884.671 777.954L878.721 779.493H878.666L878.473 779.413L877.702 778.933L870.43 780.632L868.13 781.532L865.417 782.132L863.516 782.531L854.853 783.931L851.631 784.75L846.755 786.169L846.411 785.989L837.734 787.948L835.723 786.809L822.777 790.347L817.42 792.506L809.28 794.824L806.705 795.544L794.874 798.622L793.8 799.202L783.333 802.22L779.793 803.08L770.18 806.178L768.169 806.598L765.181 806.498L763.046 807.217L756.256 810.096L755.334 808.297L745.349 811.915L740.611 815.293L735.295 817.032L731.851 817.951L728.216 819.53L723.423 820.29L712.322 824.427L707.998 826.726L703.797 826.526L693.234 829.684L687.972 832.143L685.039 834.362L680.783 836.66L679.378 836.62L669.256 840.818L665.565 842.537L662.824 843.616L660.193 844.796L646.765 849.873L639.728 852.891L631.547 856.389L620.666 861.066L599.002 870.821L596.62 871.34L589.802 874.759L572.849 882.494L561.707 888.451V888.99L544.45 897.665L532.495 903.742L520.114 910.018L519.067 910.558L518.861 910.658L491.123 924.75L489.222 925.809L470.822 935.983L458.716 941.18L431.722 959.41L419.713 967.525L417.082 969.424L416.559 969.824L413.997 971.383L383.284 991.052L370.063 999.527L369.925 999.607L367.281 1001.39L366.95 1001.69L348.702 1013.4L325.234 1028.37L323.113 1029.97L316.571 1034.55L310.938 1038.26L287.91 1052.58L282.387 1056.17L281.699 1056.61L271.438 1063.29L257.569 1072.41L244.444 1081.02L235.809 1086.68L227.587 1092.09L219.599 1106.67L215.646 1110.96L206.116 1118.18L194.037 1127.33L192.178 1129.43L185.636 1135.53L183.997 1136.87L177.207 1141.25L169.357 1147.02L163.738 1151.92L157.485 1156.98L150.571 1160.37L145.104 1164.55L139.705 1168.65L135.229 1172.07L129.389 1176.55L124.28 1180.44L119.129 1184.38L113.592 1188.62L103.58 1196.27L90.8814 1205.99L82.5904 1212.38L72.3713 1220.26L61.3258 1228.78L43.7246 1242.35L29.7042 1253.26L14.1689 1265.33L-6.36586 1281.31L-29.1317 1299.24L-59.3209 1323.02L-61.4281 1324.72L-115.223 1367.68L-173.949 1415.41L-232 1463.42" stroke="#6B5069" stroke-linecap="round" stroke-linejoin="round"/>
</g>
<g style="mix-blend-mode:overlay">
<path d="M588.012 876.417L563.359 894.347L520.183 915.615L495.778 923.55" stroke="#6B5069" stroke-linecap="round" stroke-linejoin="round"/>
</g>
<g style="mix-blend-mode:overlay">
<path d="M865.417 782.132L890.496 794.504L923.261 809.836L957.72 824.967L960.598 827.166L1002.05 858.868L1039.84 874.519L1079.07 889.47L1120.19 903.702L1163.03 916.954L1207.99 929.167L1255.71 967.945L1296.54 1008L1329.62 1048.48L1354.83 1088.64L1372.34 1127.71L1382.71 1165.11L1386.68 1200.29L1385.16 1232.91L1379.12 1262.74L1369.47 1289.7L1357.11 1313.81L1342.76 1335.15L1327.08 1353.92L1310.57 1370.33L1293.64 1384.65L1276.57 1397.16L1259.53 1408.09L1242.66 1417.71L1226.01 1426.28L1209.59 1433.98L1193.41 1440.97L1177.43 1447.45L1161.63 1453.51L1146 1459.22L1130.5 1464.66L1115.08 1469.9L1099.76 1474.95L1084.5 1479.85L1069.3 1484.63L1054.14 1489.27L1039.03 1493.78L1023.97 1498.18L1008.94 1502.46L993.941 1506.66L978.971 1510.71L964.028 1514.69L949.126 1518.55L934.238 1522.33L919.377 1525.99L904.544 1529.54L889.725 1533L874.934 1536.36L860.156 1539.64L845.405 1542.8L830.669 1545.87L769.01 1530.46L754.314 1533.04L739.633 1535.52L678.704 1517.73L664.022 1519.71L649.341 1521.59L589.004 1501.4L574.281 1502.78L559.572 1504.08L544.835 1505.3L530.099 1506.42L470.065 1482.87L455.246 1483.49L440.413 1484.01L425.552 1484.45L410.692 1484.79L395.79 1485.07L380.874 1485.25L365.931 1485.33L307.467 1457.82L305.608 1456.94L290.513 1456.5L275.391 1455.99L260.241 1455.37L245.05 1454.67L229.832 1453.87L214.572 1452.99L199.271 1452.01L183.942 1450.95L168.558 1449.81L153.133 1448.57L137.666 1447.23L122.159 1445.81L106.596 1444.29L90.9915 1442.69L75.3185 1440.99L59.6179 1439.21L43.8484 1437.34L28.0377 1435.36L12.158 1433.3L-3.77673 1431.12L-19.7666 1428.88L-35.8252 1426.52L-51.939 1424.06L-68.1216 1421.52L-84.3731 1418.87L-95.8594 1411.29" stroke="#6B5069" stroke-linecap="round" stroke-linejoin="round"/>
</g>
<g style="mix-blend-mode:overlay">
<path d="M1731.86 583.625L1709.39 602.595L1659.72 638.794L1611.17 669.596L1562.87 696.021L1515.96 718.188L1469.38 736.898L1424.28 752.209L1379.5 764.742L1336.12 774.536L1293.09 782.012L1251.38 787.269L1210.1 790.567L1170.1 792.026L1130.69 791.886L1092.62 790.207L1055.37 787.189L998.404 775.795L980.224 772.157L974.329 770.998L955.392 767.64L953.602 767.44L950.792 767.7L946.743 768.339L944.25 768.14L939.967 768.619L935.904 769.279L930.712 769.939" stroke="#6B5069" stroke-linecap="round" stroke-linejoin="round"/>
</g>
<g style="mix-blend-mode:overlay">
<path d="M807.187 795.984L825.587 822.608L843.822 857.488L856.423 894.047L862.359 931.626L860.927 969.324L851.851 1006.3L835.338 1041.64L811.911 1074.62L782.534 1104.55L748.296 1130.99" stroke="#6B5069" stroke-linecap="round" stroke-linejoin="round"/>
</g>
<g style="mix-blend-mode:overlay">
<path d="M1731.86 728.842L1707.26 739.616L1648.15 761.903L1591.05 780.213L1535.19 795.044L1481.13 806.638L1428.21 815.373L1376.99 821.409L1326.96 825.047L1278.56 826.466L1231.46 825.907L1186.09 823.588L1120.43 806.997L1108.34 803.939L1100.99 802.08L1040.63 787.928L1028.19 785.01L1019.56 782.991L984.838 777.694L947.638 768.559" stroke="#6B5069" stroke-linecap="round" stroke-linejoin="round"/>
</g>
<g style="mix-blend-mode:overlay">
<path d="M810.286 795.184L832.652 811.195L863.241 832.563L894.89 853.97L927.462 875.238L961.177 896.266L995.897 916.814L1031.93 936.843L1069.18 956.072L1108 974.521L1148.36 991.891L1190.58 1008.16L1234.7 1023.07L1281.03 1036.61L1305.32 1077.2L1322 1116.9L1331.46 1154.98L1334.51 1190.96L1331.99 1224.38L1324.87 1255.02L1314.11 1282.74L1300.57 1307.55L1285.1 1329.5L1268.34 1348.79L1250.85 1365.6L1233.03 1380.19L1215.2 1392.84L1197.54 1403.84L1180.17 1413.39L1163.15 1421.8L1146.49 1429.26L1130.14 1435.98L1114.09 1442.11L1098.28 1447.77L1082.68 1453.07L1067.24 1458.06L1051.91 1462.86L1036.68 1467.46L1021.54 1471.9L1006.45 1476.19L991.407 1480.37L976.409 1484.43L961.452 1488.37L946.523 1492.2L931.607 1495.94L916.733 1499.58L901.886 1503.1L887.04 1506.54L872.234 1509.85L857.443 1513.09L842.665 1516.23L827.914 1519.27L813.164 1522.21L798.428 1525.05L783.719 1527.8L769.01 1530.46L708.08 1513.51L693.385 1515.67L678.704 1517.73L618.408 1498.38L603.699 1499.94L589.004 1501.4L529.176 1479.57L514.426 1480.51L499.648 1481.39L484.856 1482.17L470.065 1482.87L410.43 1457.58L395.528 1457.76L380.613 1457.84H365.656L350.685 1457.74L335.687 1457.56L320.661 1457.3L305.608 1456.94L246.662 1427.22L245.532 1426.64L230.3 1425.72L215.04 1424.72L199.739 1423.64L184.396 1422.46L169.013 1421.19L153.574 1419.83L138.107 1418.37L122.586 1416.81L107.023 1415.17L91.4186 1413.43L75.7456 1411.61L60.0312 1409.67L44.2617 1407.65L28.4372 1405.53L12.5438 1403.32L-3.39097 1401.02L-19.3946 1398.6L-35.4532 1396.1L-51.5808 1393.5L-67.7634 1390.78L-74.6497 1386.19" stroke="#6B5069" stroke-linecap="round" stroke-linejoin="round"/>
</g>
<g style="mix-blend-mode:overlay">
<path d="M1731.86 738.596L1707.26 739.616L1562.85 746.112L1424.28 752.209L1292.61 757.686L1170.66 761.923L1058.3 764.941L983.323 767.36L969.564 766.8L968.972 766.84" stroke="#6B5069" stroke-linecap="round" stroke-linejoin="round"/>
</g>
<g style="mix-blend-mode:overlay">
<path d="M1403.82 0L1387.56 26.6247L1268.69 202.824L1230.69 259.151L1098.12 434.151L983.061 567.415L881.172 669.676L789.847 748.111L712.487 804.319L709.32 806.637L707.254 808.117L679.089 825.187L651.765 841.737L632.414 853.451L631.161 855.549L620.666 861.066L600.022 869.741L598.823 870.341" stroke="#6B5069" stroke-linecap="round" stroke-linejoin="round"/>
</g>
<g style="mix-blend-mode:overlay">
<path d="M1731.86 596.478L1709.39 602.595L1542.99 645.53L1534.07 647.829L1382.09 684.168L1374.41 685.987L1237.09 716.029L1229.27 717.748L1118.66 739.276L1099.44 743.034L1075.07 751.209L1051.33 757.246L983.584 763.662L963.38 766.401L960.736 766.84L959.001 766.461" stroke="#6B5069" stroke-linecap="round" stroke-linejoin="round"/>
</g>
<g style="mix-blend-mode:overlay">
<path d="M707.998 826.726L723.712 847.794L743.379 873.879L763.625 900.344L784.476 926.929L806.057 953.593L828.465 980.078L851.851 1006.3L876.421 1032.05L902.299 1057.19L929.748 1081.56L958.904 1105.03L989.989 1127.45L1023.15 1148.7L1058.56 1168.69L1096.35 1187.24L1136.65 1204.29L1179.55 1219.7L1225.17 1233.39L1273.58 1245.19L1324.87 1255.02L1379.12 1262.74L1436.42 1268.23L1496.87 1271.33L1560.58 1271.95L1627.64 1269.85L1698.2 1264.93L1731.86 1261.32" stroke="#6B5069" stroke-linecap="round" stroke-linejoin="round"/>
</g>
<g style="mix-blend-mode:overlay">
<path d="M932.571 770.538L953.313 777.214L987.868 784.85L995.415 787.269L1059.61 807.817L1100.1 814.353L1106.63 816.472L1178 839.779L1224.34 844.536L1230.46 846.595L1305.85 872.08L1358.07 874.239L1363.97 876.318L1440.57 903.262L1498.85 901.903L1580.04 931.606L1644.8 925.749L1722.77 955.272L1731.86 953.853" stroke="#6B5069" stroke-linecap="round" stroke-linejoin="round"/>
</g>
<g style="mix-blend-mode:overlay">
<path d="M1731.86 923.031L1712.42 916.534L1644.8 925.749L1559.49 897.785L1498.85 901.903L1412.25 874.219L1358.07 874.239L1272.42 847.614L1224.34 844.536L1148.79 821.649L1142.16 819.65L1080.91 802.72L1069.21 799.482L1061.78 797.443L1006.49 783.251L984.838 777.694L951.729 771.498L943.038 769.159" stroke="#6B5069" stroke-linecap="round" stroke-linejoin="round"/>
</g>
<g style="mix-blend-mode:overlay">
<path d="M685.48 835.041L698.88 855.689L716.22 882.054L734.096 908.739L752.579 935.544L771.792 962.428L791.886 989.133L812.999 1015.62L835.338 1041.64L859.068 1067.15L884.423 1091.93L911.582 1115.86L940.725 1138.85L972.029 1160.71L1005.63 1181.4L1041.68 1200.73L1080.27 1218.64L1121.49 1234.99L1165.42 1249.7" stroke="#6B5069" stroke-linecap="round" stroke-linejoin="round"/>
</g>
<g style="mix-blend-mode:overlay">
<path d="M679.089 837.4L679.048 837.54L669.82 862.226L648.817 893.468L618.986 922.251L580.878 947.477L535.511 968.385L484.292 984.416L428.816 995.349L370.71 1001.31L367.432 1001.39" stroke="#6B5069" stroke-linecap="round" stroke-linejoin="round"/>
</g>
<g style="mix-blend-mode:overlay">
<path d="M703.48 828.405L698.88 855.689L684.763 888.77L661.901 920.252L630.486 948.996L591.249 974.061L545.386 994.75L494.345 1010.66L439.724 1021.65L383.188 1027.95" stroke="#6B5069" stroke-linecap="round" stroke-linejoin="round"/>
</g>
<g style="mix-blend-mode:overlay">
<path d="M599.181 871.3L608.299 895.527L618.986 922.251L630.486 948.996L642.95 975.741L656.571 1002.39L671.501 1028.85L687.972 1055.06L706.124 1080.88L726.177 1106.25L748.296 1130.99" stroke="#6B5069" stroke-linecap="round" stroke-linejoin="round"/>
</g>
<g style="mix-blend-mode:overlay">
<path d="M746.863 813.534L762.165 829.724L786.142 854.83L810.836 880.335L836.219 905.96L836.192 943.239L828.465 980.078L812.999 1015.62L790.219 1048.92L760.911 1079.3L726.177 1106.25L687.311 1129.39L645.663 1148.64L602.611 1164.11L559.379 1176.05L517.07 1184.8L487.721 1159.63L461.154 1133.91L437.41 1107.74L416.504 1081.28L398.434 1054.64L383.188 1027.95L326.266 1029.97L325.192 1029.93" stroke="#6B5069" stroke-linecap="round" stroke-linejoin="round"/>
</g>
<g style="mix-blend-mode:overlay">
<path d="M723.436 821.389L723.712 847.794L716.22 882.054L700.244 915.555L675.687 947.097L642.95 975.74L602.955 1000.57L556.955 1021.03L506.479 1036.83" stroke="#6B5069" stroke-linecap="round" stroke-linejoin="round"/>
</g>
<g style="mix-blend-mode:overlay">
<path d="M1731.86 827.506L1715.37 832.143L1650.28 847.134L1587.6 858.508L1482.95 838.939L1376.99 821.409L1271.77 805.858L1170.1 792.026L1082.39 780.892L1073.38 779.753L1012.13 771.358L982.772 768.1L968.311 767.18L965.653 767.06" stroke="#6B5069" stroke-linecap="round" stroke-linejoin="round"/>
</g>
<g style="mix-blend-mode:overlay">
<path d="M740.666 815.612L744.674 839.039L766.572 864.704L789.117 890.769L812.283 916.974L836.192 943.239L860.927 969.324L886.613 995.109L913.428 1020.37L941.523 1044.98L971.107 1068.79L1002.36 1091.59L1035.47 1113.34L1070.57 1133.85L1107.88 1153.02L1147.52 1170.69L1189.63 1186.8L1234.34 1201.19L1281.74 1213.76L1331.99 1224.38L1385.16 1232.91L1441.38 1239.21L1500.77 1243.15L1563.45 1244.55L1629.54 1243.27L1699.2 1239.09L1731.86 1235.85" stroke="#6B5069" stroke-linecap="round" stroke-linejoin="round"/>
</g>
<g style="mix-blend-mode:overlay">
<path d="M1731.86 834.402L1715.37 832.143L1598.83 818.531L1481.13 806.637L1364.3 796.343L1251.38 787.269L1143.7 779.193L1043.91 771.738L1013.42 770.758L983.323 767.36L981.367 766.121H980.183L979.411 766.141L979.26 766.161L978.103 766.241L975.555 766.401" stroke="#6B5069" stroke-linecap="round" stroke-linejoin="round"/>
</g>
<g style="mix-blend-mode:overlay">
<path d="M660.193 844.796L669.82 862.226L684.763 888.77L700.244 915.555L716.371 942.44L733.256 969.364L751.078 996.149L770.001 1022.73L790.219 1048.92L811.911 1074.62L835.31 1099.67L860.596 1123.96L887.935 1147.36L917.518 1169.77L949.47 1191.04L983.915 1211.07L1020.95 1229.75L1060.64 1246.96L1103.03 1262.66" stroke="#6B5069" stroke-linecap="round" stroke-linejoin="round"/>
</g>
<g style="mix-blend-mode:overlay">
<path d="M471.139 937.243L476.193 958.171L484.292 984.416L494.346 1010.66L506.479 1036.83" stroke="#6B5069" stroke-linecap="round" stroke-linejoin="round"/>
</g>
<g style="mix-blend-mode:overlay">
<path d="M646.311 850.612L636.326 866.863L608.299 895.526L571.637 920.892L527.165 941.98L476.193 958.171L420.236 969.104L417.275 969.404" stroke="#6B5069" stroke-linecap="round" stroke-linejoin="round"/>
</g>
<g style="mix-blend-mode:overlay">
<path d="M756.05 810.555L762.165 829.724L766.572 864.704L763.625 900.344L752.579 935.544L733.256 969.364L705.987 1000.73L671.501 1028.85L631.01 1053.1L585.822 1073.1" stroke="#6B5069" stroke-linecap="round" stroke-linejoin="round"/>
</g>
<g style="mix-blend-mode:overlay">
<path d="M824.499 791.486L836.591 799.482L867.675 819.43L899.958 839.419L933.219 859.207L967.732 878.776L1003.32 897.865L1040.31 916.434L1078.6 934.244L1118.53 951.294L1160.04 967.285L1203.5 982.217L1248.88 995.809L1296.54 1008L1346.47 1018.54L1399 1027.27L1434.54 1066.69L1461.97 1105.53L1481.61 1143.08L1494.06 1178.8L1500.13 1212.24L1500.77 1243.15L1496.87 1271.33L1489.35 1296.8L1479.01 1319.56L1466.57 1339.79L1452.62 1357.68L1437.63 1373.45L1421.98 1387.38L1405.92 1399.74L1389.67 1410.75L1373.34 1420.65L1357.02 1429.66L1340.77 1437.96L1324.62 1445.67L1308.56 1452.95L1292.61 1459.86L1276.73 1466.48L1260.96 1472.88L1245.25 1479.07L1229.62 1485.11L1214.05 1490.97L1198.54 1496.7L1183.09 1502.3L1167.68 1507.76L1152.34 1513.11L1137.04 1518.33L1121.78 1523.43L1106.56 1528.4L1091.38 1533.28L1076.26 1538.04L1061.16 1542.68L1046.1 1547.21L1031.09 1551.63L1016.1 1555.95L1001.14 1560.17L986.215 1564.28L971.327 1568.28L956.466 1572.18L893.127 1559.77L878.349 1563.16L863.599 1566.46L801.237 1551.75L786.542 1554.53L771.847 1557.25L710.27 1540.2L695.602 1542.4L680.935 1544.51L666.281 1546.55L651.613 1548.49L590.601 1528.26L575.906 1529.72L561.197 1531.08L546.488 1532.36L531.765 1533.56L517.042 1534.68L502.292 1535.7L487.542 1536.64L426.571 1511.87L411.711 1512.31L396.837 1512.67L381.935 1512.93L367.005 1513.13L352.048 1513.23L337.078 1513.25L322.08 1513.19L307.054 1513.05L291.987 1512.81L276.892 1512.49L261.77 1512.09L246.62 1511.61L231.429 1511.03L216.197 1510.37L200.937 1509.63L185.622 1508.81L170.28 1507.9L154.896 1506.92L139.457 1505.82L123.99 1504.66L108.455 1503.4L92.8922 1502.06L77.2742 1500.64L61.6011 1499.12L45.873 1497.5L30.1035 1495.82L14.2652 1494.04L-1.61443 1492.16L-17.5629 1490.21L-33.5665 1488.15L-49.639 1486.01L-114.535 1445.91L-115.251 1445.45L-116.353 1444.79L-122.674 1443.71" stroke="#6B5069" stroke-linecap="round" stroke-linejoin="round"/>
</g>
<g style="mix-blend-mode:overlay">
<path d="M958.216 700.558L967.705 712.931L970.996 724.964L968.889 736.398L962.761 746.572L953.12 755.507L941.303 762.783L926.443 766.44L910.756 771.857L909.585 773.616" stroke="#6B5069" stroke-linecap="round" stroke-linejoin="round"/>
</g>
<g style="mix-blend-mode:overlay">
<path d="M1731.86 1002.07L1720.09 995.269L1651.56 1001.11L1588.83 967.225L1526.43 968.545L1463.57 936.903L1458.78 934.484L1402.09 932.105L1336.1 901.223L1331.1 898.885L1279.84 893.668L1212.98 864.524L1207.72 862.246L1161.84 855.03L1096.77 828.445L1091.16 826.166L1027.5 802.64L1021.11 800.261L960.832 779.773L953.313 777.214L929.831 770.458L925.919 770.758" stroke="#6B5069" stroke-linecap="round" stroke-linejoin="round"/>
</g>
<g style="mix-blend-mode:overlay">
<path d="M-232 545.887L-219.866 542.209L-34.8198 705.615L83.9952 824.407L158.601 912.597L263.092 872.84L358.88 839.139L446.101 811.255L524.796 788.928L594.953 771.877L656.489 759.804L658.665 756.326L714.815 666.378L781.088 662.9L836.453 664.239L927.228 554.102L983.061 567.415L1026.04 584.385L1057.35 603.634L1078.06 624.202L1089.73 644.87L1093.53 665.079L1091.08 683.948L1083.32 701.278L1071.82 716.529L1057.06 729.882L1040.49 740.955L1021.89 751.849L1003.18 757.286L983.64 764.742L976.216 766.52L974.646 766.341L972.553 766.501L972.043 766.341L968.862 766.58L968.256 766.82L967.595 766.381L965.543 766.221L964.165 766.541L959.827 767.02L956.466 766.92L951.247 767.6L947.239 768.459L943.038 769.159H942.102L941.289 769.139L937.405 769.719L931.869 770.298L927.544 769.679L923.867 769.999L920.713 771.757L915.493 772.697L912.725 772.377L908.704 773.217L904.035 774.496L903.016 774.596L897.176 775.435L890.772 776.895L884.547 777.554L877.867 779.013L869.851 780.233L860.472 782.232L854.881 783.971L851.41 784.61L848.959 785.09L846.259 785.829L839.263 787.788L838.065 787.948L837.927 787.968L837.707 787.908L829.801 789.407L827.212 789.747L823.314 790.687L817.42 792.506L812.503 794.105L810.065 795.024L806.939 795.884L795.935 798.902L795.425 799.062L793.593 798.282L783.058 801.74L778.802 803.179L770.098 805.998L768.555 806.737L766.861 807.237L763.955 808.077L755.816 809.816L746.395 813.014L740.39 813.993L727.417 818.571L723.423 820.789L707.584 826.166L703.646 827.406L697.062 829.924L684.942 834.202L679.984 836.48L679.131 837.3L675.357 838.759L665.565 842.537L660.042 844.516L647.192 849.133L632.414 853.451L630.486 854.09L608.381 861.446L596.964 865.404L579.101 871.58L544.436 884.353L504.427 899.984L459.06 918.753L408.433 940.821L380.42 982.377L365.628 990.432L339.86 1004.46L335.053 1007.08L295.623 1029.05L291.794 1031.19L285.528 1034.67L271.438 1063.29L260.613 1075.78L254.057 1081.88L253.314 1082.42L251.854 1083.54L238.646 1093.53L225.824 1103.25L221.747 1106.35L219.599 1106.67L215.646 1110.96L206.474 1118.46L194.533 1127.59L191.572 1129.33L184.727 1134.87L177.483 1141.95L176.174 1143.26L170.486 1147.82L166.313 1151.32" stroke="#6B5069" stroke-linecap="round" stroke-linejoin="round"/>
</g>
<g style="mix-blend-mode:overlay">
<path d="M770.222 806.278L776.543 820.09L786.143 854.83L789.117 890.769L784.476 926.929L771.792 962.428L751.078 996.149L722.831 1027.29L687.972 1055.06L647.702 1078.96L603.437 1098.71L556.652 1114.3L537.522 1088.74L520.83 1062.89L506.479 1036.83L453.111 1047.96L398.434 1054.64L343.937 1057.37L326.266 1029.97L325.964 1029.39" stroke="#6B5069" stroke-linecap="round" stroke-linejoin="round"/>
</g>
<g style="mix-blend-mode:overlay">
<path d="M827.997 790.567L836.591 799.482L863.241 832.563L885.841 867.982L902.988 905.201L913.703 943.559L917.256 982.217L913.428 1020.37L902.299 1057.19L884.423 1091.93L860.596 1123.96L831.853 1152.84" stroke="#6B5069" stroke-linecap="round" stroke-linejoin="round"/>
</g>
<g style="mix-blend-mode:overlay">
<path d="M1731.86 780.952L1722.26 784.37L1659.66 803.319L1598.83 818.531L1540.07 830.284L1482.95 838.939L1427.75 844.736L1374.16 847.954L1278.56 826.466L1191.3 808.776L1183.84 807.277L1113.44 794.105L1092.62 790.207L1030.16 779.213L1016.02 776.735L1006.31 775.016L974.329 770.998L957.444 767.7" stroke="#6B5069" stroke-linecap="round" stroke-linejoin="round"/>
</g>
<g style="mix-blend-mode:overlay">
<path d="M1731.86 784.79L1722.26 784.37L1591.05 780.213L1461.27 777.094L1336.12 774.536L1216.83 772.297L1106.19 769.859L1074.47 771.518L1043.91 771.738L988.363 767.44" stroke="#6B5069" stroke-linecap="round" stroke-linejoin="round"/>
</g>
<g style="mix-blend-mode:overlay">
<path d="M780.193 803.399L788.057 810.255L815.492 833.702L843.822 857.488L872.978 881.375L902.988 905.201L933.921 928.827L965.818 951.994L998.858 974.641L1033.11 996.489L1068.81 1017.52L1106.04 1037.45L1145.05 1056.25L1185.96 1073.7L1228.98 1089.76L1274.25 1104.17L1322 1116.9L1372.34 1127.71L1425.49 1136.51L1481.61 1143.08L1540.86 1147.24L1603.43 1148.78L1669.52 1147.48L1685.77 1180.22L1695.36 1210.83L1699.2 1239.09L1698.2 1264.93L1693.24 1288.36L1685.1 1309.49L1674.48 1328.48L1661.96 1345.53L1648.04 1360.9L1633.08 1374.79L1617.42 1387.46L1601.28 1399.12L1584.83 1409.91L1568.23 1420.05L1551.52 1429.62L1534.8 1438.78L1518.11 1447.55L1501.44 1456.05L1484.86 1464.3L1468.35 1472.32L1451.92 1480.13L1435.56 1487.79L1419.26 1495.26L1403.07 1502.58L1386.95 1509.75L1370.88 1516.77L1354.92 1523.63L1339 1530.34L1323.16 1536.92L1307.37 1543.38L1291.66 1549.67L1276.01 1555.85L1260.41 1561.88L1244.89 1567.8L1229.41 1573.6L1213.98 1579.25L1198.61 1584.81L1183.29 1590.23L1168.03 1595.53L1152.81 1600.72L1086.19 1592.65L1071.16 1597.28L1056.15 1601.82L990.966 1591.49L976.106 1595.51L961.273 1599.4L897.272 1586.81L882.522 1590.23L867.799 1593.55L853.104 1596.78L838.423 1599.9L775.455 1584.27L760.801 1586.93L746.175 1589.49L731.535 1591.97L716.922 1594.35L702.296 1596.64L687.697 1598.86L673.084 1601L610.736 1581.13L596.096 1582.81L581.456 1584.37L566.802 1585.87L552.135 1587.29L537.467 1588.61L522.799 1589.87L508.104 1591.03L493.409 1592.11L478.7 1593.13L463.977 1594.05L449.227 1594.89L434.477 1595.67L419.699 1596.34L404.907 1596.94L390.088 1597.48L375.241 1597.92L360.381 1598.3L345.507 1598.58L330.591 1598.8L315.648 1598.94L300.691 1599L285.693 1598.96L270.667 1598.86L255.614 1598.68L240.519 1598.42L225.397 1598.08L210.234 1597.68L195.029 1597.18L179.796 1596.6L164.523 1595.96L149.194 1595.23L133.838 1594.41L118.44 1593.53L102.987 1592.55L37.8713 1557.97L37.1964 1557.61L36.6731 1557.33L36.1497 1557.05L-29.1593 1520.25L-29.8479 1519.87L-30.3712 1519.57L-30.9084 1519.27L-97.1539 1479.65L-98.2281 1479.01L-133.417 1456.72" stroke="#6B5069" stroke-linecap="round" stroke-linejoin="round"/>
</g>
<g style="mix-blend-mode:overlay">
<path d="M631.698 856.749L636.326 866.863L648.817 893.468L661.901 920.252L675.687 947.097L690.314 973.981L705.987 1000.73L722.831 1027.29L741.079 1053.52L760.911 1079.3L782.534 1104.55L806.113 1129.09L831.853 1152.84" stroke="#6B5069" stroke-linecap="round" stroke-linejoin="round"/>
</g>
<g style="mix-blend-mode:overlay">
<path d="M1731.86 421.798L1727.26 431.712L1692.85 487.68L1655.57 536.512L1615.89 579.208L1575.48 615.967L1534.07 647.829L1493.1 674.873L1451.77 698.06L1411.41 717.409L1370.99 733.699L1331.79 746.912L1292.61 757.686L1254.7 765.981L1216.83 772.297L1180.19 776.575L1143.7 779.193L1108.39 780.173L1073.38 779.753L1039.58 777.974L1006.31 775.016L962.733 766.441L957.32 767.1L956.287 767.62L954.538 767.82L952.638 768.1L951.605 769.859L942.24 770.298L937.13 768.899L927.806 770.198L926.071 770.818L922.256 770.598L912.725 772.377L909.365 773.516L904.049 774.496L903.622 774.656L903.36 774.716L899.958 775.375L897.851 775.775" stroke="#6B5069" stroke-linecap="round" stroke-linejoin="round"/>
</g>
<g style="mix-blend-mode:overlay">
<path d="M261.219 1076.44L267.183 1083.04L297.041 1112.36L329.751 1141.19L365.16 1169.31L403.089 1196.59L438.416 1194.62L476.538 1190.84L517.07 1184.8L549.16 1209.27L588.797 1200.19L620.942 1223.56L655.786 1246.01L691.622 1233.83L726.728 1255.26L764.506 1275.59L796.582 1260.74L828.851 1242.93L860.473 1221.86L890.386 1197.49L917.518 1169.77L940.725 1138.85L958.904 1105.03L971.107 1068.79L976.574 1030.69L974.853 991.511L943.713 967.805L913.703 943.559L884.629 918.913L856.423 894.047L829.03 869.202L802.38 844.456L776.543 820.09L764.01 808.117" stroke="#6B5069" stroke-linecap="round" stroke-linejoin="round"/>
</g>
<g style="mix-blend-mode:overlay">
<path d="M1731.86 667.357L1725.04 671.495L1669.47 700.738L1615.73 725.364L1562.85 746.112L1511.68 763.182L1461.27 777.094L1412.42 788.028L1364.3 796.343L1317.65 802.18L1271.77 805.858L1227.34 807.477L1183.84 807.277L1141.86 805.418L1100.99 802.08L1061.78 797.443L1023.92 791.646L973.448 777.554L960.97 774.076L951.908 769.739L948.396 768.479L947.142 768.439L944.815 768.599L942.102 769.159L937.832 769.839" stroke="#6B5069" stroke-linecap="round" stroke-linejoin="round"/>
</g>
<g style="mix-blend-mode:overlay">
<path d="M783.485 802.46L788.057 810.255L802.38 844.456L810.837 880.335L812.283 916.974L806.058 953.593L791.886 989.133L770.001 1022.73L741.079 1053.52L706.125 1080.88L666.419 1104.41" stroke="#6B5069" stroke-linecap="round" stroke-linejoin="round"/>
</g>
<g style="mix-blend-mode:overlay">
<path d="M1731.86 670.416L1725.04 671.495L1562.87 696.021L1419.23 716.289L1411.41 717.409L1278.96 734.619L1270.77 735.678L1151.28 749.37L1142.96 750.33L1114.12 757.006L1086.35 761.683L1058.3 764.941L1031.42 766.62L982.937 764.442L966.631 765.921L964.234 766.381" stroke="#6B5069" stroke-linecap="round" stroke-linejoin="round"/>
</g>
<g style="mix-blend-mode:overlay">
<path d="M1731.86 429.354L1727.26 431.712L1540.74 522.021L1531.2 526.638L1504.43 567.914L1474.15 604.274L1442.15 635.676L1293.42 680.23L1285.7 682.529L1164.68 715.29L1146.32 720.247L1039.17 746.072L1022.06 750.19L946.84 764.881L927.42 768.679L922.49 770.678L919.777 771.398L913.552 772.657L912.078 773.277L910.095 773.836" stroke="#6B5069" stroke-linecap="round" stroke-linejoin="round"/>
</g>
<g style="mix-blend-mode:overlay">
<path d="M860.266 765.501L862.938 771.378L861.492 776.715L856.451 781.452L853.517 782.871" stroke="#6B5069" stroke-linecap="round" stroke-linejoin="round"/>
</g>
<g style="mix-blend-mode:overlay">
<path d="M891.185 777.074L895.689 778.953L899.875 781.392L944.98 807.777L948.52 810.096L993.487 839.639L996.475 841.897L1039.84 874.519L1042.35 876.757L1081.91 911.877L1118.53 951.295L1148.36 991.891L1170.94 1032.99L1185.96 1073.7L1193.7 1113.36L1194.65 1151.22L1189.63 1186.8L1179.55 1219.7L1165.42 1249.7" stroke="#6B5069" stroke-linecap="round" stroke-linejoin="round"/>
</g>
<g style="mix-blend-mode:overlay">
<path d="M903.635 774.816L908.153 776.495L940.835 787.568L975.638 798.262L980.995 800.761L1036.18 826.566L1076.12 837L1080.8 839.359L1139.12 868.682L1183.93 878.356L1188.24 880.735L1246.58 912.837L1296.08 921.032L1300.13 923.49L1355.9 957.431L1410.1 963.368L1465.18 1000.55L1524.28 1003.44L1573.38 1040.3L1637.73 1039.42L1680.25 1074.94L1731.86 1071.05" stroke="#6B5069" stroke-linecap="round" stroke-linejoin="round"/>
</g>
<g style="mix-blend-mode:overlay">
<path d="M561.844 888.93L563.359 894.347L571.637 920.892L580.878 947.477L591.248 974.061L602.955 1000.57L616.135 1026.93L631.01 1053.1L647.702 1078.96L666.419 1104.41" stroke="#6B5069" stroke-linecap="round" stroke-linejoin="round"/>
</g>
<g style="mix-blend-mode:overlay">
<path d="M891.929 776.935L895.689 778.953L928.247 791.526L932.613 794.025L980.045 821.129L1017.11 834.082L1020.81 836.42L1070.24 867.463L1111.39 880.355L1154.32 892.308L1157.86 894.727L1207.99 929.167L1254.96 940.101L1258.19 942.64L1304.39 978.799L1355.37 987.974L1399 1027.27L1454.19 1033.97L1491.21 1072.65L1550.91 1076.14L1581.19 1113.14L1645.78 1112.92L1669.52 1147.48L1731.86 1143.56" stroke="#6B5069" stroke-linecap="round" stroke-linejoin="round"/>
</g>
<g style="mix-blend-mode:overlay">
<path d="M519.081 910.618L520.183 915.615L527.165 941.98L535.511 968.385L545.386 994.75L556.955 1021.03L570.397 1047.18L585.822 1073.1" stroke="#6B5069" stroke-linecap="round" stroke-linejoin="round"/>
</g>
<g style="mix-blend-mode:overlay">
<path d="M795.398 799.022L795.425 799.062L796.899 800.221L825.587 822.608L855.239 845.255L885.841 867.982L917.325 890.609L949.828 913.016L983.309 934.944L1018 956.332L1053.91 976.94L1091.3 996.708L1106.04 1037.45L1113.47 1077.56L1113.87 1116.28L1107.88 1153.02L1096.35 1187.24L1080.27 1218.64L1060.64 1246.96L1038.47 1272.19L997.412 1255.6L959.07 1237.57L923.426 1218.14L890.386 1197.49L859.908 1175.69L831.853 1152.84L799.392 1178.3L772.659 1155.06L748.296 1130.99L710.532 1153.76L687.311 1129.39L666.419 1104.41L623.338 1123.94L603.437 1098.71L585.822 1073.1L537.522 1088.74L487.569 1100.19L437.41 1107.74L388.298 1111.92L341.251 1113.26L297.041 1112.36L256.137 1109.78L221.21 1106.95L220.425 1107.34" stroke="#6B5069" stroke-linecap="round" stroke-linejoin="round"/>
</g>
<g style="mix-blend-mode:overlay">
<path d="M289.714 1055.1L290.899 1056.73L314.56 1085.12L341.251 1113.26L370.889 1141.01L403.31 1168.17L438.416 1194.62L476.056 1220.18L511.41 1215.78L548.871 1239.81L583.949 1232.87L620.942 1223.56L659.243 1211.43L697.999 1196.13L736.204 1177.4L772.659 1155.06L806.113 1129.09L835.31 1099.67L859.068 1067.15L876.421 1032.05L886.613 995.109L889.34 957.091L884.629 918.913L872.978 881.375L855.239 845.255L832.652 811.195L817.792 793.225" stroke="#6B5069" stroke-linecap="round" stroke-linejoin="round"/>
</g>
<g style="mix-blend-mode:overlay">
<path d="M795.921 798.882L795.949 798.922L796.899 800.221L815.492 833.702L829.03 869.202L836.219 905.961L862.359 931.626L889.34 957.091L917.256 982.217L946.302 1006.8L976.574 1030.69L1008.31 1053.74L1041.62 1075.76L1076.77 1096.67L1113.87 1116.28L1153.12 1134.53L1194.65 1151.22L1238.64 1166.29L1285.2 1179.56L1334.51 1190.96L1386.68 1200.29L1441.84 1207.45L1500.13 1212.24L1561.72 1214.54L1626.74 1214.14L1695.36 1210.83L1731.86 1207.59" stroke="#6B5069" stroke-linecap="round" stroke-linejoin="round"/>
</g>
<g style="mix-blend-mode:overlay">
<path d="M878.487 779.533L879.465 779.993L911.307 793.985L914.708 796.243L957.72 824.967L993.487 839.639L1031.1 853.89L1070.24 867.463L1073.48 869.821L1120.19 903.702L1122.93 906.041L1164.97 942.12L1203.5 982.217L1234.7 1023.07L1258.32 1064.03L1274.25 1104.17L1283.01 1142.88L1285.2 1179.56L1281.74 1213.76L1273.58 1245.19L1261.66 1273.69L1246.94 1299.2L1230.24 1321.8L1212.28 1341.61L1193.63 1358.86L1174.77 1373.75L1156 1386.62L1137.55 1397.68L1119.53 1407.23L1102.01 1415.53L1084.96 1422.8L1068.35 1429.26L1052.13 1435.06L1036.24 1440.35L1020.59 1445.25L1005.17 1449.85L989.879 1454.19L974.729 1458.34L959.648 1462.32L944.65 1466.18L929.693 1469.9L914.791 1473.52L899.903 1477.01L885.056 1480.39L870.223 1483.69L855.418 1486.89L840.626 1489.97L825.849 1492.96L811.085 1495.86L796.348 1498.66L781.611 1501.38L766.889 1503.98L752.18 1506.52L737.471 1508.93L722.776 1511.27L708.08 1513.51L647.798 1494.98L633.103 1496.72L618.408 1498.38L558.663 1477.39L543.926 1478.51L529.176 1479.57L469.831 1456.03L455.011 1456.54L440.179 1456.98L425.318 1457.32L410.43 1457.58L352.338 1431.02L351.759 1430.76L351.167 1430.5L336.169 1430.2L321.143 1429.84L306.076 1429.38L290.995 1428.84L275.873 1428.18L260.723 1427.46L245.532 1426.64L186.82 1394.94L185.677 1394.32L170.293 1392.92L154.868 1391.42L139.402 1389.84L123.894 1388.16L108.331 1386.39L92.7132 1384.51L77.0539 1382.53L61.3395 1380.47L45.5701 1378.31L29.7593 1376.05L13.8659 1373.69L-2.06887 1371.23L-18.0587 1368.68L-34.1174 1366L-50.2449 1363.24L-52.5449 1361.68" stroke="#6B5069" stroke-linecap="round" stroke-linejoin="round"/>
</g>
<g style="mix-blend-mode:overlay">
<path d="M419.919 967.805L420.236 969.104L428.816 995.349L439.724 1021.65L453.111 1047.96L469.032 1074.16L520.83 1062.89L570.397 1047.18L616.135 1026.93L656.571 1002.39L690.314 973.982L716.371 942.44L734.096 908.739L743.379 873.879L744.674 839.039L728.381 819.73" stroke="#6B5069" stroke-linecap="round" stroke-linejoin="round"/>
</g>
<g style="mix-blend-mode:overlay">
<path d="M878.666 779.493L879.465 779.993L882.922 782.351L923.261 809.836L926.029 811.974L965.956 842.777L968.269 844.876L1005.39 878.416L1040.31 916.435L1069.18 956.072L1091.3 996.709L1130.22 1015.42L1145.05 1056.25L1152.52 1096.15L1153.12 1134.53L1147.52 1170.69L1136.65 1204.29L1121.49 1234.99L1103.03 1262.66" stroke="#6B5069" stroke-linecap="round" stroke-linejoin="round"/>
</g>
<g style="mix-blend-mode:overlay">
<path d="M916.223 772.917L916.416 772.977L922.201 773.896L949.511 782.711L955.985 785.37L1012.12 808.316L1017.48 810.715L1076.12 837L1117.88 846.535L1122.76 848.873L1183.93 878.356L1230.73 886.732L1235.3 889.13L1296.08 921.032L1347.84 927.528L1352.14 930.007L1410.1 963.368L1466.89 967.145L1524.28 1003.44L1586.34 1003.72L1637.73 1039.42L1705.48 1035.47L1731.86 1055.61" stroke="#6B5069" stroke-linecap="round" stroke-linejoin="round"/>
</g>
<g style="mix-blend-mode:overlay">
<path d="M1731.86 382.001L1563.4 474.488L1553.72 479.805L1531.2 526.638L1366.38 600.636L1358.66 604.094L1206.17 666.798L1087.62 710.693L1071.82 716.529L977.194 747.591L953.12 755.507L924.046 763.762L906.514 768.739L889.064 774.656L883.941 776.855" stroke="#6B5069" stroke-linecap="round" stroke-linejoin="round"/>
</g>
<g style="mix-blend-mode:overlay">
<path d="M1731.86 568.894L1584.17 613.368L1575.48 615.967L1416.76 660.581L1408.4 662.92L1265.34 699.699L1258.1 701.558L1141.43 728.622L1122.95 732.92L1099.44 743.034L1003.53 758.285L957.417 765.261" stroke="#6B5069" stroke-linecap="round" stroke-linejoin="round"/>
</g>
<g style="mix-blend-mode:overlay">
<path d="M878.459 779.293L884.753 778.134L911.307 793.985L944.98 807.777L980.045 821.129L983.667 823.448L1031.1 853.89L1034.17 856.169L1079.07 889.47L1081.75 891.809L1122.62 927.508L1160.04 967.285L1190.58 1008.16L1213.54 1049.22L1228.98 1089.76L1237.12 1128.95L1238.64 1166.29L1234.34 1201.19L1225.17 1233.39L1212.12 1262.62L1196.16 1288.86L1178.15 1312.09L1158.85 1332.48L1138.94 1350.19L1118.84 1365.44L1098.98 1378.53L1079.56 1389.72L1060.74 1399.28L1042.54 1407.49L1024.98 1414.61L1007.99 1420.83L991.49 1426.32L975.417 1431.28L959.676 1435.8L944.195 1439.97L928.922 1443.91L913.786 1447.63L898.774 1451.17L883.817 1454.59L868.929 1457.86L854.082 1461.02L839.263 1464.08L824.471 1467.02L809.693 1469.88L794.929 1472.64L780.193 1475.29L765.456 1477.85L750.734 1480.31L736.011 1482.69L721.302 1484.97L706.593 1487.15L691.898 1489.25L677.189 1491.24L662.507 1493.16L647.798 1494.98L588.122 1474.85L573.399 1476.15L558.663 1477.39L499.441 1454.71L484.65 1455.41L469.831 1456.03L410.926 1430.72L396.024 1430.8L381.095 1430.78L366.152 1430.68L351.167 1430.5L292.441 1401.62L292.235 1401.52L277.126 1400.76L261.977 1399.92L246.786 1398.98L231.567 1397.96L216.307 1396.84L201.02 1395.62L185.677 1394.32L127.172 1360.54L126.029 1359.88L110.48 1357.98L94.8755 1355.96L79.23 1353.86L63.5294 1351.64L47.7737 1349.35L31.9629 1346.93L16.0971 1344.43L0.17609 1341.81L-15.8137 1339.11L-25.6748 1332.4" stroke="#6B5069" stroke-linecap="round" stroke-linejoin="round"/>
</g>
<g style="mix-blend-mode:overlay">
<path d="M817.723 792.606L823.645 791.306L827.832 790.387L829.801 789.407L836.508 787.768L837.927 787.968L845.626 785.27L853.669 783.011L860.472 782.231L862.883 782.052L865.431 781.452L870.402 780.612L878.046 779.153L884.271 777.834L888.568 777.114L890.703 776.475L897.025 774.996L901.142 773.396L910.205 772.117L940.835 787.568L946.068 790.107L998.39 815.432L1002.87 817.851L1055.77 846.375L1059.64 848.753L1111.39 880.355L1114.71 882.714L1163.03 916.954L1165.96 919.393L1209.36 955.692L1248.88 995.809L1281.03 1036.61L1329.62 1048.48L1380.74 1058.59L1434.54 1066.69L1491.21 1072.64L1519.97 1110.6L1540.86 1147.24L1554.49 1182.02L1561.72 1214.54L1563.45 1244.55L1560.58 1271.95L1554.01 1296.68L1544.54 1318.82L1532.83 1338.57L1519.51 1356.1L1505.04 1371.67L1489.78 1385.51L1473.99 1397.88L1457.92 1409.01L1441.67 1419.15L1425.35 1428.48L1409.04 1437.14L1392.78 1445.29L1376.57 1453.01L1360.43 1460.42L1344.37 1467.56L1328.38 1474.45L1312.47 1481.17L1296.65 1487.71L1280.88 1494.08L1265.16 1500.32L1249.52 1506.42L1233.93 1512.37L1218.39 1518.21L1202.91 1523.91L1187.5 1529.5L1172.12 1534.94L1156.79 1540.28L1141.51 1545.49L1126.28 1550.59L1111.09 1555.59L1095.94 1560.45L1080.85 1565.2L1065.76 1569.84L1050.74 1574.38L1035.74 1578.81L1020.78 1583.15L956.466 1572.18L941.633 1576L926.814 1579.69L863.599 1566.46L848.876 1569.66L834.153 1572.78L771.847 1557.25L757.179 1559.85L742.511 1562.36L727.857 1564.8L713.204 1567.14L651.613 1548.49L636.959 1550.35L622.292 1552.13L607.624 1553.81L592.956 1555.41L578.289 1556.93L563.607 1558.37L548.912 1559.71L487.542 1536.64L472.778 1537.5L457.986 1538.28L443.195 1538.96L428.375 1539.58L413.542 1540.1L398.682 1540.56L383.794 1540.92L368.892 1541.18L353.977 1541.38L339.02 1541.5L324.035 1541.54L309.037 1541.48L293.998 1541.36L278.93 1541.14L263.836 1540.84L248.714 1540.46L233.536 1540L218.345 1539.44L203.099 1538.82L187.826 1538.1L172.511 1537.32L157.154 1536.42L141.743 1535.46L126.304 1534.42L110.81 1533.3L95.2747 1532.08L79.6843 1530.78L64.0526 1529.38L48.3658 1527.92L32.6238 1526.36L16.8268 1524.71L0.974734 1522.99L-63.9899 1484.81L-64.6923 1484.39L-65.2295 1484.09L-65.5875 1483.87L-65.7666 1483.77L-125.167 1446.75L-125.208 1446.73" stroke="#6B5069" stroke-linecap="round" stroke-linejoin="round"/>
</g>
<g style="mix-blend-mode:overlay">
<path d="M812.352 792.566L822.777 790.347L827.832 790.387L828.397 790.467L832.446 789.407L837.293 787.628L844.992 784.69L852.54 783.711L865.513 792.426L897.741 809.456L931.084 826.226L965.956 842.777L1002.05 858.868L1004.5 861.066L1042.97 895.527L1078.6 934.244L1108 974.521L1130.22 1015.42L1170.94 1032.99L1213.54 1049.22L1258.32 1064.03L1305.32 1077.2L1354.83 1088.64L1406.96 1098.13L1461.97 1105.53L1519.97 1110.6L1581.19 1113.14L1603.43 1148.78L1618.34 1182.56L1626.74 1214.14L1629.54 1243.27L1627.64 1269.85L1621.92 1293.92L1613.18 1315.53L1602.09 1334.85L1589.26 1352.1L1575.13 1367.52L1560.11 1381.35L1544.45 1393.82L1528.41 1405.17L1512.12 1415.61L1495.7 1425.3L1479.24 1434.4L1462.78 1443.01L1446.37 1451.25L1430 1459.16L1413.7 1466.84L1397.46 1474.27L1381.31 1481.53L1365.23 1488.61L1349.22 1495.54L1333.28 1502.3L1317.42 1508.91L1301.62 1515.39L1285.88 1521.73L1270.19 1527.92L1254.57 1534L1239.01 1539.94L1223.51 1545.75L1208.06 1551.43L1192.66 1557.01L1177.31 1562.44L1162.01 1567.76L1146.76 1572.98L1131.56 1578.06L1116.39 1583.03L1101.27 1587.89L1086.19 1592.65L1020.78 1583.15L1005.87 1587.37L990.967 1591.49L926.814 1579.69L912.037 1583.31L897.273 1586.81L834.153 1572.78L819.458 1575.78L804.777 1578.69L790.109 1581.53L775.455 1584.27L713.204 1567.14L698.564 1569.4L683.923 1571.58L669.283 1573.66L654.657 1575.66L640.017 1577.58L625.377 1579.39L610.737 1581.13L548.912 1559.71L534.217 1560.96L519.508 1562.14L504.799 1563.26L490.062 1564.26L475.326 1565.2L460.562 1566.06L445.784 1566.82L431.006 1567.52L416.187 1568.12L401.354 1568.66L386.507 1569.1L371.633 1569.46L356.745 1569.76L341.816 1569.96L326.872 1570.08L311.902 1570.12L296.89 1570.08L281.864 1569.98L266.797 1569.78L251.702 1569.5L236.567 1569.14L221.403 1568.7L206.198 1568.18L190.952 1567.58L175.678 1566.88L160.35 1566.12L144.993 1565.28L129.582 1564.34L114.129 1563.34L98.6353 1562.24L83.0862 1561.08L67.4958 1559.83L51.8365 1558.49L-13.1832 1522.15L-13.8718 1521.77L-14.409 1521.47L-14.7533 1521.27L-14.9461 1521.17L-80.1862 1482.49L-80.8886 1482.07L-81.4257 1481.75L-81.9629 1481.43L-129.271 1451.71" stroke="#6B5069" stroke-linecap="round" stroke-linejoin="round"/>
</g>
<g style="mix-blend-mode:overlay">
<path d="M922.793 775.695L975.638 798.262L1012.12 808.317L1050.75 817.691L1091.16 826.166L1133.69 833.602L1139.43 835.821L1207.72 862.246L1255.8 868.002L1261.22 870.241L1331.1 898.885L1384.72 902.183L1389.94 904.461L1458.78 934.484L1518.09 934.424L1588.83 967.225L1654.23 962.908L1720.09 995.269L1731.86 993.73" stroke="#6B5069" stroke-linecap="round" stroke-linejoin="round"/>
</g>
<g style="mix-blend-mode:overlay">
<path d="M928.701 771.777L984.273 791.826L1021.11 800.261L1059.61 807.817L1066.01 810.036L1133.69 833.602L1178 839.778L1183.93 841.937L1255.8 868.002L1305.85 872.08L1311.53 874.259L1384.72 902.183L1440.57 903.262L1518.09 934.424L1580.04 931.606L1654.23 962.908L1722.77 955.272L1731.86 959.29" stroke="#6B5069" stroke-linecap="round" stroke-linejoin="round"/>
</g>
<g style="mix-blend-mode:overlay">
<path d="M832.446 789.407L836.536 787.668L845.791 785.43L868.46 805.998L900.936 824.507L934.444 842.777L969.344 860.846L1005.39 878.416L1042.97 895.527L1081.91 911.877L1122.62 927.508L1164.97 942.12L1209.36 955.692L1255.71 967.945L1304.39 978.799L1346.47 1018.54L1380.74 1058.59L1406.96 1098.13L1425.49 1136.51L1436.85 1173.09L1441.84 1207.45L1441.38 1239.21L1436.42 1268.23L1427.87 1294.42L1416.56 1317.84L1403.25 1338.61L1388.49 1356.92L1372.82 1372.97L1356.61 1387.08L1340.13 1399.46L1323.56 1410.41L1307.03 1420.15L1290.6 1428.92L1274.33 1436.88L1258.21 1444.23L1242.23 1451.09L1226.38 1457.54L1210.65 1463.7L1195.03 1469.62L1179.5 1475.31L1164.03 1480.85L1148.63 1486.23L1133.29 1491.46L1118 1496.56L1102.76 1501.56L1087.57 1506.42L1072.4 1511.17L1057.29 1515.81L1042.21 1520.33L1027.16 1524.75L1012.16 1529.06L997.178 1533.26L982.235 1537.36L967.319 1541.34L952.431 1545.23L937.571 1549.01L922.724 1552.69L907.919 1556.29L893.127 1559.77L830.669 1545.87L815.946 1548.85L801.237 1551.75L739.633 1535.52L724.952 1537.9L710.27 1540.2L649.341 1521.59L634.659 1523.39L619.978 1525.11L605.296 1526.72L590.601 1528.26L530.099 1506.42L515.349 1507.46L500.598 1508.4L485.82 1509.25L471.029 1510.05L456.223 1510.73L441.404 1511.35L426.571 1511.87L366.124 1485.43L365.931 1485.33L350.974 1485.35L335.976 1485.27L320.964 1485.11L305.911 1484.85L290.83 1484.51L275.735 1484.09L260.586 1483.59L245.408 1482.99L230.204 1482.31L214.944 1481.55L199.67 1480.69L184.341 1479.75L168.971 1478.71L153.56 1477.61L138.107 1476.39L122.613 1475.11L107.064 1473.71L91.4737 1472.26L75.8282 1470.7L60.1276 1469.04L44.3857 1467.3L28.5749 1465.46L12.7228 1463.54L-3.19817 1461.52L-19.1742 1459.42L-35.2054 1457.22L-51.3054 1454.93L-67.4604 1452.53L-83.6844 1450.05L-99.9772 1447.45L-116.353 1444.79L-121.008 1441.73L-121.049 1441.69" stroke="#6B5069" stroke-linecap="round" stroke-linejoin="round"/>
</g>
<g style="mix-blend-mode:overlay">
<path d="M942.598 771.278L987.868 784.85L1023.92 791.646L1031.25 793.825L1100.1 814.353L1142.16 819.65L1186.09 823.588L1192.86 825.467L1272.42 847.614L1322.46 848.833L1412.25 874.219L1468.64 871.76L1559.49 897.785L1622.64 890.629L1712.42 916.535L1731.86 912.957" stroke="#6B5069" stroke-linecap="round" stroke-linejoin="round"/>
</g>
<g style="mix-blend-mode:overlay">
<path d="M860.266 765.501L828.947 778.713L811.801 785.969L790.274 795.064L777.011 800.661L767.577 805.618L765.291 806.478L763.831 807.957L760.512 808.956L755.981 810.315L746.202 812.814L740.514 814.713L735.295 817.031L727.582 818.77L723.409 819.19" stroke="#6B5069" stroke-linecap="round" stroke-linejoin="round"/>
</g>
<g style="mix-blend-mode:overlay">
<path d="M838.175 788.028L839.676 787.708L846.549 786.109L848.298 785.43L851.424 784.63L855.322 784.31L865.513 792.426L867.538 794.265L900.936 824.507L933.219 859.207L961.177 896.266L983.309 934.944L998.858 974.641L1007.2 1014.48L1008.31 1053.74L1002.36 1091.59L989.989 1127.45L972.029 1160.71L949.47 1191.04L923.426 1218.14L894.945 1241.99L865.128 1262.58L834.856 1280.07L796.582 1260.74L761.008 1240.25L728.147 1218.66L691.622 1233.83L659.243 1211.43L629.564 1188.14L588.797 1200.19L559.379 1176.05L532.716 1151.24L508.779 1125.91L487.57 1100.19L469.032 1074.16L416.504 1081.28L364.623 1084.74L314.56 1085.12L267.183 1083.04L254.057 1081.88" stroke="#6B5069" stroke-linecap="round" stroke-linejoin="round"/>
</g>
<g style="mix-blend-mode:overlay">
<path d="M903.126 773.956L908.07 774.696L913.565 779.213L962.278 803.679L998.39 815.432L1036.18 826.566L1040.74 828.945L1096.53 858.008L1139.12 868.682L1143.3 871.081L1199.44 903.222L1246.58 912.837L1250.48 915.315L1304.28 949.616L1355.9 957.431L1408.96 995.309L1465.18 1000.55L1512.27 1038.38L1573.38 1040.3L1613.87 1077L1680.25 1074.94L1713.95 1109.66L1731.86 1108.04" stroke="#6B5069" stroke-linecap="round" stroke-linejoin="round"/>
</g>
<g style="mix-blend-mode:overlay">
<path d="M868.13 781.532L870.871 780.952L870.939 780.992L890.496 794.504L893.237 796.643L931.084 826.226L933.315 828.245L969.344 860.846L1003.32 897.865L1031.93 936.843L1053.91 976.94L1068.81 1017.52L1076.34 1057.65L1076.77 1096.67L1070.57 1133.85L1058.56 1168.69L1041.68 1200.73L1020.95 1229.75L997.412 1255.6L972.057 1278.31L932.144 1260.82L894.945 1241.99L860.472 1221.86L828.63 1200.61L799.392 1178.3L764.423 1200.23L736.204 1177.4L710.532 1153.76L670.523 1172.75L645.663 1148.64L623.338 1123.94L578.33 1139.47L556.652 1114.3L508.779 1125.91L461.154 1133.91L414.892 1138.77L370.889 1141.01L329.751 1141.19L291.877 1139.81L257.39 1137.31L220.687 1107.56" stroke="#6B5069" stroke-linecap="round" stroke-linejoin="round"/>
</g>
<g style="mix-blend-mode:overlay">
<path d="M-232 1588.53L-229.259 1584.69L-225.995 1580.09L-224.742 1577L-223.654 1574.52L-220.032 1570.2L-216.671 1565.62L-213.393 1560.94L-210.914 1555.31L-207.857 1550.29L-204.593 1545.03L-202.169 1539.7L-197.445 1531.44L-192.019 1525.33L-187.419 1521.95L-183.383 1517.67L-180.643 1514.75L-179.403 1513.43L-175.395 1509.17L-171.387 1504.92L-168.013 1499.96L-164.873 1494.7L-162.518 1491.86L-160.686 1490.73L-158.937 1488.51L-157.89 1485.23L-153.373 1481.49L-151.831 1479.53L-150.316 1477.11L-146.859 1473.26L-146.308 1472.56L-143.939 1469.42L-142.162 1467.28L-141.24 1466.18L-141.074 1465.96L-139.036 1463.5L-138.953 1463.4L-137.356 1461.46L-136.901 1460.92L-136.309 1460.2L-135.978 1459.8L-135.923 1459.74L-133.417 1456.72L-130.263 1451.09L-127.247 1445.45L-123.597 1441.83L-121.242 1442.01L-121.008 1441.73L-118.047 1435.72L-114.879 1429.96L-111.67 1424.3L-104.55 1420.21L-100.804 1416.05L-96.9886 1410.79L-92.5952 1405.51L-88.1329 1400.62L-83.712 1395.76L-79.1257 1391.1L-77.1838 1389.16L-75.6689 1385.51L-70.3665 1381.03L-70.1461 1380.91L-65.8078 1376.15L-61.3455 1371.29L-56.9521 1366.5L-53.4401 1362.68L-52.5862 1361.74L-52.5449 1361.68L-47.9725 1356.7L-44.4742 1351.11L-39.6401 1346.49L-36.9545 1344.69L-35.6874 1341.37L-32.1617 1336.09L-27.5754 1331.6L-22.4659 1326.6L-17.7144 1321.92L-13.0042 1317.32L-11.7233 1316.07L-8.21136 1312.87L-6.43473 1311.09L-3.76287 1308.29L-3.58382 1308.11L-1.40777 1305.99L1.23654 1303.41L6.0018 1298.76L10.6982 1294.16L15.3808 1289.66L18.6862 1286.4L19.9258 1285.16L20.0084 1285.08L24.2503 1280.93L24.815 1280.39L29.5665 1275.75L34.2629 1271.19L38.8904 1266.69L43.4353 1262.28L43.4629 1262.24L48.2557 1257.58L51.809 1252.18L56.0647 1246.63L58.4749 1247.64L61.3946 1243.41L65.3335 1238.61L70.1126 1234.47L75.4012 1229.89L80.3317 1225.62L85.2072 1221.4L87.397 1219.52L90.1377 1217.34L91.8731 1215.76L94.9581 1212.96L99.9024 1208.71L104.792 1204.47L109.612 1200.29L114.363 1196.19L117.159 1193.78L119.046 1192.14L119.17 1192.04L124.087 1187.78L128.948 1183.58L131.607 1181.28L133.741 1179.44L138.507 1175.33L141.881 1172.41L143.231 1171.25L143.327 1171.17L148.381 1166.81L153.519 1162.37L157.485 1156.98L162.085 1151.62L163.738 1151.92L166.12 1151.5L166.327 1151.32L169.632 1147.22L176.78 1140.43L180.389 1123.42L197.962 1111.74L208.168 1104.97L227.587 1092.09L231.829 1065.25L285.528 1034.67L291.436 995.489L352.558 966.366L408.433 940.821L431.213 885.152L494.056 862.925L550.179 844.876L599.581 830.704L642.179 820.17L678.043 812.774L707.254 808.117L730.171 805.558L747.056 804.719L758.598 804.838L765.291 806.478L766.861 807.237L768.225 806.617L770.098 805.998L778.802 803.179L782.906 801.5L785.344 801.281L788.897 800.141L793.772 797.763L796.362 797.363L806.705 795.284L811.319 793.885L817.792 793.225L823.645 791.306L827.212 789.747L835.958 786.089L846.135 783.731L848.298 785.43L851.19 784.49L853.228 782.651L856.451 781.452L860.72 781.292L862.883 782.052L865.431 781.452L870.292 780.552L872.413 780.113L876.862 778.214L888.692 775.435L890.483 776.775L896.116 774.876L900.605 774.016L903.635 774.816L904.338 774.716L908.896 773.317L912.326 772.637L915.493 772.697L919.405 771.258L922.49 770.978L927.255 771.258L928.329 771.078L928.99 770.998L931.965 770.338L935.904 769.279L939.967 768.619L944.719 767.88L951.164 767.14L953.01 767.88L953.96 767.84L958.229 767.08L960.695 767.16L963.394 766.84L965.543 767.04L967.388 766.58L968.614 766.181L970.556 765.961L972.319 766.181L980.183 767L984.783 766.56L1004.06 765.841L1028.32 762.283L1050.93 758.345L1142.96 750.33L1171.41 741.855L1200.67 730.941L1229.27 717.748L1258.1 701.558L1285.7 682.529L1312.46 659.962L1336.86 634.016L1358.66 604.094L1376.13 570.473L1388.3 532.814L1393.04 491.698L1388.7 447.284L1372.71 400.63L1342.85 352.578L1296.33 304.885L1230.69 259.151L1143.4 217.735L1032.37 182.815L895.771 156.97L732.292 142.458L541.048 141.599L321.46 156.27L73.2252 188.152L-203.863 238.723L-232 208.98" stroke="#6B5069" stroke-linecap="round" stroke-linejoin="round"/>
</g>
</g>
</g>
<defs>
<clipPath id="clip0_831_11">
<rect width="1964" height="1263" fill="white" transform="translate(-232)"/>
</clipPath>
</defs>
</svg>
